<?xml version="1.0" encoding="utf-8"?>
<!-- Generator: Adobe Illustrator 21.0.2, SVG Export Plug-In . SVG Version: 6.00 Build 0)  -->
<svg version="1.1" id="Layer_1" xmlns="http://www.w3.org/2000/svg" xmlns:xlink="http://www.w3.org/1999/xlink" x="0px" y="0px"
	 viewBox="0 0 512 512" style="enable-background:new 0 0 512 512;" xml:space="preserve">
<style type="text/css">
	.st0{fill:#DADADD;}
	.st1{fill:#58595B;}
	.st2{fill:none;stroke:#FF7D59;stroke-width:14.17;stroke-linecap:round;stroke-linejoin:round;stroke-miterlimit:10;}
	.st3{fill:#A5A5AA;}
	.st4{fill:#4F4A59;}
	.st5{fill:#A6A8AB;}
	.st6{fill:#D05459;}
	.st7{fill:none;stroke:#615C6B;stroke-width:9.81;stroke-linecap:round;stroke-miterlimit:10;}
	.st8{fill:#73707A;}
	.st9{fill:#ECECEC;}
	.st10{fill:#DADADC;}
	.st11{fill:#615C6B;}
	.st12{fill:#FF6363;}
	.st13{fill:none;stroke:#615C6B;stroke-width:5.45;stroke-linecap:round;stroke-linejoin:round;stroke-miterlimit:10;}
	.st14{fill:#FF7D59;}
	.st15{fill:none;}
	.st16{fill:#231F20;}
	.st17{fill:none;stroke:#6D6E70;stroke-width:0.163;}
	.st18{fill:#FFFFFF;}
	.st19{fill:none;stroke:#58595B;stroke-width:2;stroke-miterlimit:10;}
</style>
<g>
	<path class="st0" d="M256,508.2c139.3,0,252.2-112.9,252.2-252.2S395.3,3.8,256,3.8S3.8,116.7,3.8,256S116.7,508.2,256,508.2"/>
	<path class="st1" d="M434,403c0-4.8-3.6-8.7-9.2-8.7c-7.9,0-15,6.3-15,13.4c0,5,4.1,8.9,9.7,8.9C427.1,415.8,434,410.1,434,403
		 M443,458.9c1-13,9.7-20,15.6-20c3.3,0,5.8,2,5.8,6.3c0,11.9-12.8,13.7-20.4,13.7H443z M376.2,434c0,0,13.3-37.1,17.8-37.1
		c0.8,0,1.2,0.7,1.2,1.6C395.2,403.3,387.3,418.2,376.2,434 M306.7,458.9c1-13,9.7-20,15.6-20c3.3,0,5.8,2,5.8,6.3
		c0,11.9-12.8,13.7-20.4,13.7H306.7z M249.7,458.9c1-13,9.7-20,15.6-20c3.3,0,5.8,2,5.8,6.3c0,11.9-12.8,13.7-20.4,13.7H249.7z
		 M211.1,387.1c1.3-2.6,3.5-6.6,7.2-6.6c1.5,0,2.3,0.8,2.3,2c0,3.5-5.6,4.8-7.9,4.8C211.7,387.3,211.1,387.1,211.1,387.1
		 M175.7,374.7c0,1.2,0,2.3-0.3,3.6c-4.6-1.8-8.2-4.1-8.2-6.9c0-2.1,1.3-4.1,3.9-4.1C174.2,367.3,175.7,370.3,175.7,374.7
		 M502.7,447c0-1.5-1.2-2.5-2.5-2.5c-0.8,0-1.6,0.3-2.5,1.3c-10.4,13.4-25.3,32-41.6,32c-9.9,0-12.5-5.6-13.2-12.5h0.7
		c26.2,0,37.3-13.2,37.3-23.9c0-7.3-6.9-13.4-16.1-13.4c-19.9,0-34.8,18.5-37.8,36.7c-6.4,8.3-12.3,14.7-15.9,14.7
		c-2.3,0-3.5-2.8-3.5-7.4c0-2.8,0.8-8.9,1.6-12.5c0,0,9.2-11.1,9.2-22.4c0-5.4-2.8-8.9-8.2-8.9c-9.1,0-16.8,18.7-19.9,35.2
		c-12,14.5-15.2,15.4-18.1,15.4c-3.6,0-5.1-3.6-5.1-9.6c0-6.8,3-17.2,3-17.2c7.4-10.4,35.5-43.1,35.5-66.8c0-7.4-3-11.9-10.4-11.9
		c-19.2,0-40.6,56.5-46,87.2c-8.7,9.4-18.9,17.6-29.6,17.6c-9.9,0-12.5-5.6-13.2-12.5h0.7c26.2,0,37.3-13.2,37.3-23.9
		c0-7.3-6.9-13.4-16.1-13.4c-18.7,0-33,16.4-37.1,33.5c-8.4,8.9-18.2,16.4-28.5,16.4c-9.9,0-12.5-5.6-13.2-12.5h0.7
		c26.2,0,37.3-13.2,37.3-23.9c0-7.3-6.9-13.4-16.1-13.4c-19.9,0-34.9,18.6-37.8,36.9c-9.5,12.4-14.6,16.7-18.8,16.7
		c-1.8,0-3.1-1.7-3.1-4.8c0-1.8,0.5-4.3,1.6-7.1c3-7.4,10.4-19.3,10.4-32.7c0-5.4-2.8-8.9-8.1-8.9c-9.7,0-23.4,15-31.9,30.5
		c0,0,15.1-44.9,22.7-62.4h4.4c13.5,0,19.7-7.4,19.7-14c0-7.4-5.9-10.9-14.1-10.9c-7.4,0-16.6,4.5-21.7,11.9
		c-1.5-0.2-4.1-0.7-7.2-1.3c1.2-3.3,1.8-6.3,1.8-9.1c0-8.1-4.4-17.5-17.9-17.5c-6.3,0-18.1,4.6-18.1,16.8c0,8.1,8.1,13.5,17.8,17.2
		c-7.9,15.4-24.5,36.1-40.5,57.4c3.9-16.3,7.9-34.5,13.3-53c2.1-2.5,5.1-6.6,5.1-10.6c0-4.5-3.5-7.4-9.2-7.4
		c-10.4,0-15.8,5.1-18.3,17.7c-12.3,12-24.3,26.6-34.7,41.4c2.8-12.2,4.4-24.6,11-45.9c7.2-0.5,10-5.1,10-8.9c0-5-4.9-8.7-11-8.7
		c-6.4,0-13.7,3.8-13.7,3.8c-6.4-1.2-16.4-2.1-23.4-2.1c-32.1,0-54.9,21.6-54.9,41.3c0,10.1,5.6,21.1,19.4,21.1
		c13.2,0,17.3-12.7,17.3-19.3c0-2.3-0.5-3.8-1.3-3.8c-2.1,0-1.3,4.3-7.4,4.3c-4.9,0-7.4-3.8-7.4-8.7c0-11.9,15-25.6,34.4-25.6
		c7.1,0,13.2,1.2,18.8,2.6c-10,25.4-10.7,49.4-20.1,80.9c-6.4,10.9-9.2,20.5-9.2,26.9c0,5.1,1.6,8.3,4.8,8.3
		c9.9,0,14.8-8.9,21.1-25.1c1.8-4.6,3.3-9.9,4.6-15.5c11.8-17.3,25.3-34.2,39-48.4c-3.3,23.8-12.7,57.6-12.7,57.6
		c-5.8,7.6-9,16.3-9,22c0,3.6,1.3,5.8,4.1,5.8c9.9,0,16-3.1,22.7-25.1l0.5-1.5c9.7-15.5,23.5-31.2,36.4-46.4
		c7.7-9.1,16.4-20.8,22.2-31.7l6.1,1.3c-6.9,15.4-16.6,44.6-23.7,70.6c-2.3,8.1-5.9,11.9-5.9,18.5c0,5.3,3,8.9,7.2,8.9
		c8.7,0,11.7-8.3,15.1-17.3c4.3-10.9,15.6-27.2,19.7-27.2c1,0,1.5,0.5,1.5,1.3c0,4.1-9.9,17.2-9.9,29.5c0,5.9,2.5,13.7,12.8,13.7
		c8.4,0,15-2.4,27.4-17.6c1.4,11.2,9.5,17.4,20.2,17.4c13.4,0,25-7.3,36.6-19.6c0.5,12.6,9,19.6,20.3,19.6
		c13.8,0,25.6-7.7,37.5-20.7c0,0.5,0,0.9,0,1.4c0,13.4,5.8,19.3,14.6,19.3c8.4,0,13.9-2.3,26.4-17.4c0,0.9-0.1,1.8-0.1,2.6
		c0,5.9,1.5,14.9,11.8,14.9c8.4,0,16.3-5.3,25.9-17.1c1.5,11,9.6,17.1,20.1,17.1c20.6,0,36.7-17,55.3-43.1
		C502.6,448.2,502.7,447.9,502.7,447"/>
	<line class="st2" x1="310.8" y1="166.6" x2="209.2" y2="227.3"/>
	<polyline class="st2" points="274.4,220 220.4,229.2 202.5,259.9 180.8,258.2 	"/>
	<path class="st3" d="M218.1,148.9c0,0,2.9,4.3,6.2,0.3l6.5-7.7c3.3-3.9,2.7-9.7-1.3-13l-19.1-16c-3.9-3.3-9.8-2.9-13,1l-1,1.2
		c0,0-1,1.2,3.8,8.2L218.1,148.9z"/>
	<path class="st4" d="M26.1,121.8c-13.4,17.7-9.8,42.9,7.9,56.3s42.9,9.8,56.3-7.9c13.4-17.7,9.8-42.9-7.9-56.3
		C64.6,100.6,39.4,104.1,26.1,121.8 M11.7,111C31,85.4,67.5,80.2,93.1,99.6c25.6,19.3,30.8,55.8,11.4,81.4
		c-19.3,25.6-55.8,30.8-81.4,11.4C-2.5,173.1-7.6,136.7,11.7,111"/>
	<polygon class="st4" points="144.3,115.4 158.9,144.8 197.2,118.4 173.7,100.7 	"/>
	<path class="st5" d="M255.4,315.4c0,0-6.7,5.2-14.9,3.1l-15.3-3.9c0,0-8.2-2.1-15-7.2L132.8,249c0,0-6.8-5.1-11.3-12.2l-8.5-13.2
		c0,0-4.6-7.1-0.3-14.4l46.7-78.7c0,0,4.3-7.3,11.1-2.2l39.1,29.5c0,0,6.8,5.1,11.5,12.1l50.5,74.4c0,0,4.8,7,12.9,9.2l29.8,8.2
		c0,0,8.2,2.2,1.5,7.4L255.4,315.4z"/>
	<path class="st6" d="M163.6,122.9c0,0-1.2-0.6-2,0.4c0,0-27,30.1-29.9,34c-2.9,3.9-23.7,63.5-23.7,63.5s-0.4,1.2,0.3,2.3l3.6,4.9
		c0,0,4.4,5.9,8.3-1.6l50.4-95.9c0,0,1.8-3.4-1.7-5.1L163.6,122.9z"/>
	<path class="st4" d="M277.2,304.4c-13.4,17.7-9.8,42.9,7.9,56.3c17.7,13.4,42.9,9.8,56.3-7.9s9.8-42.9-7.9-56.3
		C315.7,283.2,290.5,286.7,277.2,304.4 M258.6,290.4c21.1-28,60.8-33.6,88.8-12.5c28,21.1,33.6,60.8,12.5,88.8
		c-21.1,28-60.8,33.6-88.8,12.5C243.1,358.2,237.5,318.4,258.6,290.4"/>
	<path class="st3" d="M72.6,126.8c-11-8.3-26.6-6.1-34.8,4.9c-8.3,11-6.1,26.6,4.9,34.8s26.6,6.1,34.9-4.9
		C85.8,150.7,83.6,135.1,72.6,126.8"/>
	<path class="st4" d="M65.1,136.7c-5.5-4.1-13.3-3-17.4,2.4c-4.1,5.5-3,13.3,2.4,17.4s13.3,3,17.4-2.4
		C71.7,148.7,70.6,140.9,65.1,136.7"/>
	<path class="st3" d="M324.3,308.6c-11-8.3-26.6-6.1-34.8,4.9c-8.3,11-6.1,26.6,4.9,34.8c11,8.3,26.6,6.1,34.9-4.9
		C337.5,332.5,335.3,316.9,324.3,308.6"/>
	<path class="st4" d="M316.8,318.5c-5.5-4.1-13.3-3-17.4,2.4c-4.1,5.5-3,13.3,2.4,17.4c5.5,4.1,13.3,3,17.4-2.4
		C323.4,330.5,322.3,322.7,316.8,318.5"/>
	<path class="st7" d="M218.9,219.5l-25.7,10.7c0,0-5.6,2.8-7,5.8c-1.3,3-3.5,9.3,3.8,14.8c7.3,5.5,59.7,45,59.7,45"/>
	<path class="st8" d="M179.7,216c0,0,6.8,5.1,1.7,11.8l-13.1,17.4c0,0-5.1,6.8-11.8,1.7l-15.8-11.9c0,0-6.8-5.1-1.7-11.8l13.1-17.4
		c0,0,5.1-6.8,11.8-1.7L179.7,216z"/>
	<path class="st4" d="M266.1,233.4c0,0,6.8,5.1,1.7,11.8l-13.1,17.4c0,0-5.1,6.8-11.8,1.7l-21-15.8c0,0-6.8-5.1-1.7-11.8
		c0,0,23.4-20.3,30.2-15.2L266.1,233.4z"/>
	<path class="st9" d="M178.8,151.5c0,0,8.3,1.8,6.4,10.1l-8.4,37.8c0,0-1.8,8.3-10.1,6.4l-15.8-3.5c0,0-8.3-1.8-6.4-10.1l8.4-37.8
		c0,0,1.8-8.3,10.1-6.4L178.8,151.5z"/>
	<path class="st9" d="M226.2,187.2c0,0-4-7.4-11.5-3.4l-34.1,18.5c0,0-7.4,4-3.4,11.5L185,228c0,0,4,7.4,11.5,3.4l34.1-18.5
		c0,0,7.4-4,3.4-11.5L226.2,187.2z"/>
	<path class="st10" d="M220.4,197.9c0,0-3.1-5.7-8.8-2.6l-32.4,17.6c0,0-5.7,3.1-2.6,8.8l1.5,2.7c0,0,3.1,5.7,8.8,2.6l32.4-17.6
		c0,0,5.7-3.1,2.6-8.8L220.4,197.9z"/>
	<path class="st10" d="M159.6,207.4c0,0,6.3,1.4,7.7-4.9l8-36c0,0,1.4-6.3-4.9-7.7l-3-0.7c0,0-6.3-1.4-7.7,4.9l-8,36
		c0,0-1.4,6.3,4.9,7.7L159.6,207.4z"/>
	<path class="st7" d="M145.3,175.5l-4.7,43.2c0,0-0.9,11.6,15.2,23.8c16.1,12.1,85.5,64.4,85.5,64.4"/>
	<path class="st11" d="M157.2,229.5c-3.1-2.3-3.7-6.8-1.4-9.9c2.3-3.1,6.8-3.7,9.9-1.4c3.1,2.3,3.7,6.8,1.4,9.9
		C164.7,231.2,160.3,231.8,157.2,229.5"/>
	<path class="st12" d="M249.3,203.1c0,0-19.6-84.5-45.7-90.9c-26.1-6.4-35.7,23.4-25.6,33.7c10.1,10.3,56.3,38,61.7,58.9
		c5.4,20.9,10.7,12.7,10.7,12.7L249.3,203.1z"/>
	<path class="st13" d="M247.2,272.2l60.2,48.9c0,0,5.1,3.8,2.5,7.2c-0.8,1.1-5.4,1.3-20.9-1.6c-15.5-2.9-66.1-11.8-66.1-11.8
		l-28.7-21.6l-68.9-52l-8.5-13.9"/>
	<path class="st6" d="M367.9,295.8c0,0-11.5-24.6-32.1-34.7c-20.6-10.2-47.8-10.4-60.3-24.2c-12.5-13.8-22.1-31.6-31.4-26.3
		c-4.7,2.7,15.1,36.1,15.1,36.1l10.5,17.6c0,0,8,14,18.4,13c10.4-1,40.5-12.7,64.1,12.1C363.7,301.4,367.9,295.8,367.9,295.8"/>
	<path class="st4" d="M309.7,245.5c0,0,4.6,4.4-1.4,7.7c-6.1,3.4-22.3,9.7-39.2-13.6c-16.9-23.3-25.3-33.2-25-34.7
		c0.3-1.6,7.2,1,12.4,5.8c5.2,4.8,21.4,26.7,27.1,28.4C289.4,240.8,305.6,241.6,309.7,245.5"/>
	<path class="st0" d="M157,81.8c-5.5-4.1-14.1-1.9-19.3,4.9c-5.2,6.9-4.9,15.8,0.6,19.9c5.5,4.1,14.1,1.9,19.3-4.9
		C162.7,94.8,162.4,85.9,157,81.8"/>
	<path class="st12" d="M178.6,97.8l-9.6-12.3c-3.2-4.1-9-4.8-13.1-1.6l-19.6,15.3c-4.1,3.2-4.8,9-1.6,13.1l1.9,2.5L178.6,97.8z"/>
	<path class="st6" d="M205.6,129.2c-2.5-5.5-8.9-7.9-14.4-5.4c-5.5,2.5-7.9,9-5.4,14.4c2.5,5.5,8.9,7.9,14.4,5.4
		C205.7,141.2,208.1,134.7,205.6,129.2"/>
	<path class="st7" d="M58.1,146c0,0,168.7-65.5,179.7-66c8.2-0.6,8.4,4.3,11.5,19.5c2.2,10-4,15.5-4,15.5"/>
	<path class="st11" d="M183.1,195.1c-7.1-5.4-8.6-15.6-3.2-22.7c5.4-7.1,15.6-8.6,22.7-3.2c7.1,5.4,8.6,15.6,3.2,22.7
		C200.4,199.1,190.2,200.5,183.1,195.1"/>
	<path class="st8" d="M228.7,319.7c0,0,1,0.8,0.3,1.8l-2.1,2.8c0,0-0.8,1-1.8,0.3l-13.7-10.3c0,0-1-0.8-0.3-1.8l2.1-2.8
		c0,0,0.8-1,1.8-0.3L228.7,319.7z"/>
	<path class="st14" d="M351.7,127.7c0,0,13.6,7.5,6,21.1l-30.6,55.2c0,0-7.5,13.6-21.1,6l-2.4-1.4c0,0-13.6-7.5-6-21.1l30.6-55.2
		c0,0,7.5-13.6,21.1-6L351.7,127.7z"/>
	<path class="st14" d="M335.9,164.2c0,0,18.5,10.3,8.2,28.7l-25.1,45.3c0,0-10.3,18.5-28.7,8.2l-9.3-5.1c0,0-18.5-10.2-8.2-28.7
		l25.1-45.3c0,0,10.3-18.5,28.7-8.2L335.9,164.2z"/>
	<path class="st9" d="M336.4,127.7c0,0,18.5,10.3,8.2,28.7l-34,61.2c0,0-10.2,18.5-28.7,8.2l-9.3-5.1c0,0-18.5-10.3-8.2-28.7
		l34-61.2c0,0,10.3-18.5,28.7-8.2L336.4,127.7z"/>
	<path class="st15" d="M297.9,167.3l-25.1,45.3c-10.2,18.5,8.2,28.7,8.2,28.7l9.3,5.1c18.5,10.2,28.7-8.2,28.7-8.2l25.1-45.3
		c10.3-18.5-8.2-28.7-8.2-28.7l-9.3-5.1c-4-2.2-7.6-3.1-10.9-3.1C304.2,156,297.9,167.3,297.9,167.3"/>
	<polyline class="st2" points="304.8,240.8 247.5,260.3 225.1,304.9 202.8,305.1 	"/>
	<path class="st2" d="M336.3,186.4L258.3,103c0,0-16.2-15.5-21.8-2.5"/>
	<path class="st14" d="M278.8,72.6c1.6-0.8-8.5-17-8.5-17c-3.8-7.6,3-2.6,3-2.6l10.5,7.7c0,0,6.8,5,3-2.6l-7-13.9
		c-3.8-7.6,3-2.6,3-2.6l11.9,8.7c0,0,4.2,3,1.9-1.6l-3.9-7.8c-3.8-7.6,3-2.6,3-2.6l44.3,32.3c6.8,5,0.4,10.4,0.4,10.4L327.6,92
		c-3.2,2.7-5.8,2.2-6.6,1.6c0,0-0.9-0.6-1.3,0.2c-0.4,0.8-1.7,1.9-1.7,1.9l-1.9,1.6c0,0-1.9,1.6-0.2,3.8c1.7,2.2-0.8,4.3-0.8,4.3
		s-2.5,2.1-2.3,10.6c0,0-0.2-8.5,0.2,11.2c0,0,0.2,8.5-2.3,10.3s-21.3-21.1-21.3-21.1l-24.6-49C261.2,59.7,277.3,73.4,278.8,72.6"/>
	<path class="st14" d="M393.3,40.6c0.8,1,7-2.3,7-2.3c3.1-1,2,2.1,2,2.1l-1.9,5.4c0,0-0.9,2.4,1.6,1.6l6.4-2.1c3.1-1,2,2.1,2,2.1
		l-2.2,6c0,0-0.4,1.2,0.8,0.8l3.9-1.3c3.1-1,2,2.1,2,2.1l-7.1,20c-1.1,3.1-5.4-1.3-5.4-1.3l-8.5-8.8c-2.1-2.2-2.4-3.5-2.3-3.9
		c0,0,0.1-0.4-0.4-0.7c-0.5-0.3-1.4-1.2-1.4-1.2l-1.2-1.3c0,0-1.2-1.3-2-0.6c-0.8,0.6-2.4-1.1-2.4-1.1s-1.6-1.7-8.9-3.5
		c0,0,7.3,1.9,0,0c0,0-7.3-1.9-8.7-3.5c-1.5-1.6,2.4-5.2,2.4-5.2s3.9-3.6,11.9-6.2l12.2-4C396.1,32.6,392.5,39.6,393.3,40.6"/>
	<path class="st14" d="M442,152.9c-0.4-1.7,18.6-4.1,18.6-4.1c8.3-1.8,0.1-4,0.1-4l-12.6-3.3c0,0-8.2-2.2,0.1-4l15.2-3.3
		c8.3-1.8,0.1-4,0.1-4l-14.2-3.8c0,0-5-1.3,0.1-2.4l8.5-1.9c8.3-1.8,0.1-4,0.1-4l-53-14.1c-8.2-2.2-8.4,6.3-8.4,6.3l-0.4,16.9
		c-0.1,4.2,1.9,5.9,2.9,6.2c0,0,1,0.3,0.6,1.1c-0.4,0.8-0.4,2.5-0.4,2.5l-0.1,2.4c0,0-0.1,2.4-2.8,2.5c-2.8,0.1-2.8,3.3-2.8,3.3
		s-0.1,3.2-5.9,9.4c0,0,5.8-6.1-6.2,6.5c0,0-5.8,6.1-5.7,7.3c0.1,1.2,17.1,2.8,17.1,2.8s8.4,0.8,16.7-1l45.3-9.9
		C463,158.5,442.3,154.7,442,152.9"/>
	<path class="st14" d="M403.7,62.3c0,0,44-18.7,60.6,22.2c0,0,3.2,7.8-5.2,6.6c-9.2-1.3-19-2.2-27.3,8.3
		C423.6,110,353.9,95.5,403.7,62.3"/>
	<path class="st14" d="M330.1,37.3c0,0,23.7-41.5,61.7-16.7c0,0,7.1,4.6-0.4,8.5c-8,4.2-16.4,9.2-16.5,22.9
		C374.7,65.8,310.7,94.4,330.1,37.3"/>
	<path class="st14" d="M352.5,122c-31.9-17.7-48.4-49-36.8-69.9c11.6-20.9,46.9-23.5,78.8-5.9c31.9,17.7,48.4,49,36.8,69.9
		C419.7,137,384.5,139.7,352.5,122"/>
	<path class="st14" d="M333.4,156.5c-41-22.7-63.2-60.9-49.7-85.2c13.5-24.4,57.6-25.7,98.6-3c41,22.7,63.2,60.9,49.7,85.2
		C418.5,177.9,374.4,179.2,333.4,156.5"/>
	<path class="st10" d="M336.4,151c-4.5-2.5-5.8-8.7-3-13.8c2.8-5.1,8.8-7.3,13.3-4.8c4.5,2.5,5.8,8.7,3,13.8
		C346.9,151.4,340.9,153.5,336.4,151"/>
	<path class="st6" d="M338.1,148.1c-4.5-2.5-5.8-8.7-3-13.8c2.8-5.1,8.8-7.3,13.3-4.8c4.5,2.5,5.8,8.7,3,13.8
		C348.5,148.4,342.6,150.5,338.1,148.1"/>
	<path class="st4" d="M375.1,99.7c0,0-6-8-16.3-8.8c-6.3,5.8-8.3,6.6-8.3,6.6l22.4,12.5L375.1,99.7z"/>
	<path class="st4" d="M434.2,116.5c0,0,9.8-6.9-1.1-13.4c-19.8-1.3-24-2.1-24-2.1l0.4,18.5L434.2,116.5z"/>
	<path class="st4" d="M313.8,49.7c0,0,0.7-12,11.9-6.1c11.6,16.1,14.5,19.2,14.5,19.2l-15.9,9.5L313.8,49.7z"/>
	<path class="st4" d="M329.4,84.1c-7.2-10.7-7.5-23.1-0.6-27.8c6.9-4.6,18.3,0.3,25.5,10.9c7.2,10.7,7.5,23.1,0.6,27.8
		C348,99.7,336.6,94.8,329.4,84.1"/>
	<path class="st8" d="M331.5,82.7c6.6,9.8,16.6,14.6,22.3,10.7c5.7-3.9,5-14.9-1.6-24.7c-6.6-9.8-16.6-14.6-22.3-10.7
		C324.2,61.9,324.9,73,331.5,82.7 M326.9,53.5c7.9-5.3,21,0.3,29.3,12.6c8.3,12.3,8.6,26.5,0.7,31.8c-7.9,5.3-21-0.3-29.3-12.6
		C319.3,73.1,319,58.9,326.9,53.5"/>
	<path class="st4" d="M396.2,121.2c12.9,0.5,23.6-5.9,23.9-14.2c0.3-8.3-9.9-15.4-22.8-15.8c-12.9-0.4-23.6,5.9-23.9,14.2
		C373.1,113.6,383.3,120.7,396.2,121.2"/>
	<path class="st8" d="M396.3,118.6c-11.8-0.4-21.1-6.3-20.9-13.2c0.2-6.9,10-12.2,21.8-11.7c11.8,0.4,21.1,6.3,20.9,13.2
		C417.8,113.8,408,119.1,396.3,118.6 M423.4,107.1c0.3-9.5-11.4-17.7-26.2-18.2c-14.8-0.5-27,6.8-27.4,16.3
		c-0.3,9.5,11.4,17.7,26.2,18.2C410.9,123.9,423.1,116.6,423.4,107.1"/>
	<path class="st9" d="M320,108.4c4.3-6.6,20.5-15.9,38.7-9.2c1.2,0.3,2.6,0.9,4,1.7c0.4,0.2,0.8,0.4,1.1,0.6
		c0.4,0.2,0.8,0.4,1.2,0.6c1.5,0.8,2.6,1.7,3.6,2.5c15.4,11.9,16,30.6,12.7,37.7c-3.7,8-11.9,13.8-28.6,9.9
		c-13.2-3.1-7.3-17.2-4.3-23c-3.3,5.7-12.1,18.2-21.7,8.6C314.6,125.8,315.1,115.7,320,108.4"/>
	<path class="st4" d="M352.1,127.6c0,0-3.5,1.6-4-2.2l-0.9-6.7c0,0-0.5-3.8,2.9-2l7.2,4c0,0,4.5,2.5-0.2,4.6L352.1,127.6z"/>
	<path class="st16" d="M373,133.3c-0.2-0.1-0.3-0.4-0.2-0.6c0.1-0.2,0.4-0.3,0.6-0.2c0.2,0.1,0.3,0.4,0.2,0.6
		C373.5,133.4,373.2,133.4,373,133.3"/>
	<path class="st16" d="M330.6,119.5c-0.2-0.1-0.3-0.4-0.2-0.6c0.1-0.2,0.4-0.3,0.6-0.2c0.2,0.1,0.3,0.4,0.2,0.6
		C331.1,119.5,330.8,119.6,330.6,119.5"/>
	<path class="st16" d="M329.9,109.4c-0.2-0.1-0.3-0.4-0.2-0.6c0.1-0.2,0.4-0.3,0.6-0.2c0.2,0.1,0.3,0.4,0.2,0.6
		C330.3,109.4,330.1,109.5,329.9,109.4"/>
	<path class="st16" d="M367.4,133c-0.2-0.1-0.3-0.4-0.2-0.6c0.1-0.2,0.4-0.3,0.6-0.2c0.2,0.1,0.3,0.4,0.2,0.6
		C367.9,133,367.6,133.1,367.4,133"/>
	<path class="st16" d="M375.8,124.6c-0.2-0.1-0.3-0.4-0.2-0.6c0.1-0.2,0.4-0.3,0.6-0.2c0.2,0.1,0.3,0.4,0.2,0.6
		S376,124.7,375.8,124.6"/>
	<path class="st16" d="M336.1,101.6c-0.2-0.1-0.3-0.4-0.2-0.6c0.1-0.2,0.4-0.3,0.6-0.2c0.2,0.1,0.3,0.4,0.2,0.6
		C336.6,101.7,336.3,101.7,336.1,101.6"/>
	<path class="st16" d="M372.9,142.9c-0.2-0.1-0.3-0.4-0.2-0.6c0.1-0.2,0.4-0.3,0.6-0.2c0.2,0.1,0.3,0.4,0.2,0.6
		C373.4,143,373.1,143,372.9,142.9"/>
	<path class="st16" d="M362,141.9c-0.2-0.1-0.3-0.4-0.2-0.6c0.1-0.2,0.4-0.3,0.6-0.2c0.2,0.1,0.3,0.4,0.2,0.6
		C362.4,141.9,362.2,142,362,141.9"/>
	<path class="st16" d="M337.8,108.2c-0.2-0.1-0.3-0.4-0.2-0.6c0.1-0.2,0.4-0.3,0.6-0.2c0.2,0.1,0.3,0.4,0.2,0.6
		S338,108.3,337.8,108.2"/>
	<path class="st16" d="M379,134.7c-0.2-0.1-0.3-0.4-0.2-0.6c0.1-0.2,0.4-0.3,0.6-0.2c0.2,0.1,0.3,0.4,0.2,0.6
		C379.5,134.8,379.2,134.8,379,134.7"/>
	<path class="st16" d="M323.1,113.7c-0.2-0.1-0.3-0.4-0.2-0.6c0.1-0.2,0.4-0.3,0.6-0.2c0.2,0.1,0.3,0.4,0.2,0.6
		C323.6,113.7,323.3,113.8,323.1,113.7"/>
	<path class="st16" d="M364.8,149.2c-0.2-0.1-0.3-0.4-0.2-0.6c0.1-0.2,0.4-0.3,0.6-0.2c0.2,0.1,0.3,0.4,0.2,0.6
		S365,149.3,364.8,149.2"/>
	<path class="st16" d="M325.2,129.3c-0.2-0.1-0.3-0.4-0.2-0.6c0.1-0.2,0.4-0.3,0.6-0.2c0.2,0.1,0.3,0.4,0.2,0.6
		C325.7,129.3,325.4,129.4,325.2,129.3"/>
	<path class="st9" d="M417.1,68c0,0,23.8,0.5,36.6,11.8c12.8,11.4,5.2,5.6-1.4,6.2c-6.6,0.6-14.4,0.8-19.7,7.2"/>
	<path class="st9" d="M339.5,36.2c0,0,22.6-20,44.6-14.8c16.7,4,7,2.5,1.8,6.1c-5.5,3.7-9.1,7.8-10.8,10.7"/>
	<path class="st17" d="M334.1,105c0,0-42.1-42.6-47.8-68.4"/>
	<path class="st17" d="M329.3,113.7c0,0-41.2-32.3-55.5-67.9"/>
	<path class="st17" d="M321.6,117.2c0,0-43-34.6-55.9-57"/>
	<path class="st17" d="M376.4,128.7c0,0,59.2,9,83.4-1.5"/>
	<path class="st17" d="M372.1,137.7c0,0,50.3,14.4,87.6,5"/>
	<path class="st17" d="M373.9,146c0,0,53.3,14.5,79,11.7"/>
	<path class="st2" d="M314,239.5c0,0,66.9,5.4,94.3,51.7s94.6,45.1,94.6,45.1"/>
	<path class="st18" d="M438.1,395.2c0-4.8-3.6-8.7-9.2-8.7c-7.9,0-15,6.3-15,13.4c0,5,4.1,8.9,9.7,8.9
		C431.2,408.1,438.1,402.3,438.1,395.2 M447.1,451.2c1-13,9.7-20,15.6-20c3.3,0,5.8,2,5.8,6.3c0,11.9-12.8,13.7-20.4,13.7H447.1z
		 M380.4,426.2c0,0,13.3-37.1,17.8-37.1c0.8,0,1.2,0.7,1.2,1.7C399.3,395.5,391.4,410.4,380.4,426.2 M310.8,451.2
		c1-13,9.7-20,15.6-20c3.3,0,5.8,2,5.8,6.3c0,11.9-12.8,13.7-20.4,13.7H310.8z M253.9,451.2c1-13,9.7-20,15.6-20
		c3.3,0,5.8,2,5.8,6.3c0,11.9-12.8,13.7-20.4,13.7H253.9z M215.2,379.4c1.3-2.6,3.5-6.6,7.2-6.6c1.5,0,2.3,0.8,2.3,2
		c0,3.5-5.6,4.8-7.9,4.8C215.9,379.5,215.2,379.4,215.2,379.4 M179.9,367c0,1.2,0,2.3-0.3,3.6c-4.6-1.8-8.2-4.1-8.2-6.9
		c0-2.1,1.3-4.1,3.9-4.1C178.4,359.6,179.9,362.5,179.9,367 M506.9,439.3c0-1.5-1.2-2.5-2.5-2.5c-0.8,0-1.6,0.3-2.5,1.3
		c-10.4,13.4-25.3,32-41.6,32c-9.9,0-12.5-5.6-13.2-12.5h0.7c26.2,0,37.3-13.2,37.3-23.9c0-7.3-6.9-13.4-16.1-13.4
		c-19.9,0-34.8,18.5-37.8,36.7c-6.4,8.3-12.3,14.7-15.9,14.7c-2.3,0-3.5-2.8-3.5-7.4c0-2.8,0.8-8.9,1.6-12.5c0,0,9.2-11.1,9.2-22.4
		c0-5.4-2.8-8.9-8.2-8.9c-9.1,0-16.8,18.7-19.9,35.2c-12,14.5-15.2,15.4-18.1,15.4c-3.6,0-5.1-3.6-5.1-9.6c0-6.8,3-17.2,3-17.2
		c7.4-10.4,35.5-43.1,35.5-66.8c0-7.4-3-11.9-10.4-11.9c-19.2,0-40.6,56.5-46,87.2c-8.7,9.4-18.9,17.6-29.6,17.6
		c-9.9,0-12.5-5.6-13.2-12.5h0.7c26.2,0,37.3-13.2,37.3-23.9c0-7.3-6.9-13.4-16.1-13.4c-18.7,0-33,16.4-37.1,33.5
		c-8.4,8.9-18.2,16.4-28.5,16.4c-9.9,0-12.5-5.6-13.2-12.5h0.7c26.2,0,37.3-13.2,37.3-23.9c0-7.3-6.9-13.4-16.1-13.4
		c-19.9,0-34.9,18.6-37.8,36.9c-9.5,12.4-14.6,16.7-18.8,16.7c-1.8,0-3.1-1.7-3.1-4.8c0-1.8,0.5-4.3,1.6-7.1
		c3-7.4,10.4-19.3,10.4-32.7c0-5.4-2.8-8.9-8.1-8.9c-9.7,0-23.4,15-31.9,30.5c0,0,15.1-44.9,22.7-62.4h4.4c13.5,0,19.7-7.4,19.7-14
		c0-7.4-5.9-10.9-14.1-10.9c-7.4,0-16.6,4.5-21.7,11.9c-1.5-0.2-4.1-0.7-7.2-1.3c1.2-3.3,1.8-6.3,1.8-9.1c0-8.1-4.4-17.5-17.9-17.5
		c-6.3,0-18.1,4.6-18.1,16.8c0,8.1,8.1,13.5,17.8,17.2c-7.9,15.4-24.5,36.1-40.5,57.4c3.9-16.3,7.9-34.5,13.3-53
		c2.1-2.5,5.1-6.6,5.1-10.6c0-4.5-3.5-7.4-9.2-7.4c-10.4,0-15.8,5.1-18.3,17.7c-12.3,12-24.3,26.6-34.7,41.4
		c2.8-12.2,4.4-24.6,11-45.9c7.2-0.5,10-5.1,10-8.9c0-5-4.9-8.7-11-8.7c-6.4,0-13.7,3.8-13.7,3.8c-6.4-1.2-16.4-2.1-23.4-2.1
		c-32.1,0-54.9,21.6-54.9,41.3c0,10.1,5.6,21.1,19.4,21.1c13.2,0,17.3-12.7,17.3-19.3c0-2.3-0.5-3.8-1.3-3.8c-2.1,0-1.3,4.3-7.4,4.3
		c-4.9,0-7.4-3.8-7.4-8.7c0-11.9,15-25.6,34.4-25.6c7.1,0,13.2,1.2,18.8,2.6c-10,25.4-10.7,49.4-20.1,80.9
		c-6.4,10.9-9.2,20.5-9.2,26.9c0,5.1,1.6,8.3,4.8,8.3c9.9,0,14.8-8.9,21.1-25.1c1.8-4.6,3.3-9.9,4.6-15.5
		c11.8-17.3,25.3-34.2,39-48.4c-3.3,23.8-12.7,57.6-12.7,57.6c-5.8,7.6-9,16.3-9,22c0,3.6,1.3,5.8,4.1,5.8c9.9,0,16-3.1,22.7-25.1
		l0.5-1.5c9.7-15.5,23.5-31.2,36.4-46.4c7.7-9.1,16.4-20.8,22.2-31.7l6.1,1.3c-6.9,15.4-16.6,44.6-23.7,70.6
		c-2.3,8.1-5.9,11.9-5.9,18.5c0,5.3,3,8.9,7.2,8.9c8.7,0,11.7-8.3,15.1-17.3c4.3-10.9,15.6-27.2,19.7-27.2c1,0,1.5,0.5,1.5,1.3
		c0,4.1-9.9,17.2-9.9,29.5c0,5.9,2.5,13.7,12.8,13.7c8.4,0,15-2.4,27.4-17.6c1.4,11.2,9.5,17.4,20.2,17.4c13.4,0,25-7.3,36.6-19.6
		c0.5,12.6,9,19.6,20.3,19.6c13.8,0,25.6-7.7,37.5-20.7c0,0.5,0,0.9,0,1.4c0,13.4,5.8,19.3,14.6,19.3c8.4,0,13.9-2.3,26.4-17.4
		c0,0.9-0.1,1.8-0.1,2.6c0,5.9,1.5,14.9,11.8,14.9c8.4,0,16.3-5.3,25.9-17.1c1.5,11,9.6,17.1,20.1,17.1c20.6,0,36.7-17,55.3-43.1
		C506.7,440.4,506.9,440.1,506.9,439.3"/>
	<path class="st19" d="M438.1,395.2c0-4.8-3.6-8.7-9.2-8.7c-7.9,0-15,6.3-15,13.4c0,5,4.1,8.9,9.7,8.9
		C431.2,408.1,438.1,402.3,438.1,395.2z M447.1,451.2c1-13,9.7-20,15.6-20c3.3,0,5.8,2,5.8,6.3c0,11.9-12.8,13.7-20.4,13.7H447.1z
		 M380.4,426.2c0,0,13.3-37.1,17.8-37.1c0.8,0,1.2,0.7,1.2,1.7C399.3,395.5,391.4,410.4,380.4,426.2z M310.8,451.2
		c1-13,9.7-20,15.6-20c3.3,0,5.8,2,5.8,6.3c0,11.9-12.8,13.7-20.4,13.7H310.8z M253.9,451.2c1-13,9.7-20,15.6-20
		c3.3,0,5.8,2,5.8,6.3c0,11.9-12.8,13.7-20.4,13.7H253.9z M215.2,379.4c1.3-2.6,3.5-6.6,7.2-6.6c1.5,0,2.3,0.8,2.3,2
		c0,3.5-5.6,4.8-7.9,4.8C215.9,379.5,215.2,379.4,215.2,379.4z M179.9,367c0,1.2,0,2.3-0.3,3.6c-4.6-1.8-8.2-4.1-8.2-6.9
		c0-2.1,1.3-4.1,3.9-4.1C178.4,359.6,179.9,362.5,179.9,367z M506.9,439.3c0-1.5-1.2-2.5-2.5-2.5c-0.8,0-1.6,0.3-2.5,1.3
		c-10.4,13.4-25.3,32-41.6,32c-9.9,0-12.5-5.6-13.2-12.5h0.7c26.2,0,37.3-13.2,37.3-23.9c0-7.3-6.9-13.4-16.1-13.4
		c-19.9,0-34.8,18.5-37.8,36.7c-6.4,8.3-12.3,14.7-15.9,14.7c-2.3,0-3.5-2.8-3.5-7.4c0-2.8,0.8-8.9,1.6-12.5c0,0,9.2-11.1,9.2-22.4
		c0-5.4-2.8-8.9-8.2-8.9c-9.1,0-16.8,18.7-19.9,35.2c-12,14.5-15.2,15.4-18.1,15.4c-3.6,0-5.1-3.6-5.1-9.6c0-6.8,3-17.2,3-17.2
		c7.4-10.4,35.5-43.1,35.5-66.8c0-7.4-3-11.9-10.4-11.9c-19.2,0-40.6,56.5-46,87.2c-8.7,9.4-18.9,17.6-29.6,17.6
		c-9.9,0-12.5-5.6-13.2-12.5h0.7c26.2,0,37.3-13.2,37.3-23.9c0-7.3-6.9-13.4-16.1-13.4c-18.7,0-33,16.4-37.1,33.5
		c-8.4,8.9-18.2,16.4-28.5,16.4c-9.9,0-12.5-5.6-13.2-12.5h0.7c26.2,0,37.3-13.2,37.3-23.9c0-7.3-6.9-13.4-16.1-13.4
		c-19.9,0-34.9,18.6-37.8,36.9c-9.5,12.4-14.6,16.7-18.8,16.7c-1.8,0-3.1-1.7-3.1-4.8c0-1.8,0.5-4.3,1.6-7.1
		c3-7.4,10.4-19.3,10.4-32.7c0-5.4-2.8-8.9-8.1-8.9c-9.7,0-23.4,15-31.9,30.5c0,0,15.1-44.9,22.7-62.4h4.4c13.5,0,19.7-7.4,19.7-14
		c0-7.4-5.9-10.9-14.1-10.9c-7.4,0-16.6,4.5-21.7,11.9c-1.5-0.2-4.1-0.7-7.2-1.3c1.2-3.3,1.8-6.3,1.8-9.1c0-8.1-4.4-17.5-17.9-17.5
		c-6.3,0-18.1,4.6-18.1,16.8c0,8.1,8.1,13.5,17.8,17.2c-7.9,15.4-24.5,36.1-40.5,57.4c3.9-16.3,7.9-34.5,13.3-53
		c2.1-2.5,5.1-6.6,5.1-10.6c0-4.5-3.5-7.4-9.2-7.4c-10.4,0-15.8,5.1-18.3,17.7c-12.3,12-24.3,26.6-34.7,41.4
		c2.8-12.2,4.4-24.6,11-45.9c7.2-0.5,10-5.1,10-8.9c0-5-4.9-8.7-11-8.7c-6.4,0-13.7,3.8-13.7,3.8c-6.4-1.2-16.4-2.1-23.4-2.1
		c-32.1,0-54.9,21.6-54.9,41.3c0,10.1,5.6,21.1,19.4,21.1c13.2,0,17.3-12.7,17.3-19.3c0-2.3-0.5-3.8-1.3-3.8c-2.1,0-1.3,4.3-7.4,4.3
		c-4.9,0-7.4-3.8-7.4-8.7c0-11.9,15-25.6,34.4-25.6c7.1,0,13.2,1.2,18.8,2.6c-10,25.4-10.7,49.4-20.1,80.9
		c-6.4,10.9-9.2,20.5-9.2,26.9c0,5.1,1.6,8.3,4.8,8.3c9.9,0,14.8-8.9,21.1-25.1c1.8-4.6,3.3-9.9,4.6-15.5
		c11.8-17.3,25.3-34.2,39-48.4c-3.3,23.8-12.7,57.6-12.7,57.6c-5.8,7.6-9,16.3-9,22c0,3.6,1.3,5.8,4.1,5.8c9.9,0,16-3.1,22.7-25.1
		l0.5-1.5c9.7-15.5,23.5-31.2,36.4-46.4c7.7-9.1,16.4-20.8,22.2-31.7l6.1,1.3c-6.9,15.4-16.6,44.6-23.7,70.6
		c-2.3,8.1-5.9,11.9-5.9,18.5c0,5.3,3,8.9,7.2,8.9c8.7,0,11.7-8.3,15.1-17.3c4.3-10.9,15.6-27.2,19.7-27.2c1,0,1.5,0.5,1.5,1.3
		c0,4.1-9.9,17.2-9.9,29.5c0,5.9,2.5,13.7,12.8,13.7c8.4,0,15-2.4,27.4-17.6c1.4,11.2,9.5,17.4,20.2,17.4c13.4,0,25-7.3,36.6-19.6
		c0.5,12.6,9,19.6,20.3,19.6c13.8,0,25.6-7.7,37.5-20.7c0,0.5,0,0.9,0,1.4c0,13.4,5.8,19.3,14.6,19.3c8.4,0,13.9-2.3,26.4-17.4
		c0,0.9-0.1,1.8-0.1,2.6c0,5.9,1.5,14.9,11.8,14.9c8.4,0,16.3-5.3,25.9-17.1c1.5,11,9.6,17.1,20.1,17.1c20.6,0,36.7-17,55.3-43.1
		C506.7,440.4,506.9,440.1,506.9,439.3z"/>
</g>
</svg>
