<?xml version="1.0" encoding="utf-8"?>
<!-- Generator: Adobe Illustrator 21.0.2, SVG Export Plug-In . SVG Version: 6.00 Build 0)  -->
<svg version="1.1" id="Layer_1" xmlns="http://www.w3.org/2000/svg" xmlns:xlink="http://www.w3.org/1999/xlink" x="0px" y="0px"
	 viewBox="0 0 512 512" style="enable-background:new 0 0 512 512;" xml:space="preserve">
<style type="text/css">
	.st0{fill:#DADADD;}
	.st1{fill:#73707A;}
	.st2{fill:#ECECEC;}
	.st3{clip-path:url(#SVGID_2_);fill:#A5A5AA;}
	.st4{fill:#FF7D59;}
	.st5{fill:none;stroke:#231F20;stroke-width:8;stroke-miterlimit:1;}
</style>
<path class="st0" d="M259.9,451c107.7,0,195-87.3,195-195s-87.3-195-195-195s-195,87.3-195,195S152.2,451,259.9,451"/>
<path class="st1" d="M259.9,429c95.5,0,173-77.5,173-173s-77.5-173-173-173s-173,77.5-173,173S164.4,429,259.9,429"/>
<path class="st2" d="M259.9,420.5c90.9,0,164.5-73.6,164.5-164.5S350.7,91.5,259.9,91.5S95.4,165.1,95.4,256S169,420.5,259.9,420.5"
	/>
<g>
	<defs>
		<path id="SVGID_1_" d="M95.4,256c0,90.9,73.6,164.5,164.5,164.5c90.9,0,164.5-73.6,164.5-164.5S350.7,91.5,259.9,91.5
			C169,91.5,95.4,165.1,95.4,256"/>
	</defs>
	<clipPath id="SVGID_2_">
		<use xlink:href="#SVGID_1_"  style="overflow:visible;"/>
	</clipPath>
	<rect x="272.6" y="44.1" class="st3" width="5.4" height="466"/>
	<rect x="28.9" y="261" class="st3" width="466" height="5.4"/>
	<rect x="57.9" y="44.1" class="st3" width="5.4" height="466"/>
	<rect x="380" y="44.1" class="st3" width="5.4" height="466"/>
	<rect x="28.9" y="153.7" class="st3" width="466" height="5.4"/>
	<rect x="165.3" y="44.1" class="st3" width="5.4" height="466"/>
	<rect x="28.9" y="368.4" class="st3" width="466" height="5.4"/>
	<rect x="326.3" y="44.1" class="st3" width="5.4" height="466"/>
	<rect x="28.9" y="207.3" class="st3" width="466" height="5.4"/>
	<rect x="111.6" y="44.1" class="st3" width="5.4" height="466"/>
	<rect x="28.9" y="422" class="st3" width="466" height="5.4"/>
	<rect x="433.6" y="44.1" class="st3" width="5.4" height="466"/>
	<rect x="28.9" y="100" class="st3" width="466" height="5.4"/>
	<rect x="219" y="44.1" class="st3" width="5.4" height="466"/>
	<rect x="28.9" y="314.7" class="st3" width="466" height="5.4"/>
	<rect x="299.5" y="44.1" class="st3" width="5.4" height="466"/>
	<rect x="28.9" y="234.2" class="st3" width="466" height="5.4"/>
	<rect x="84.8" y="44.1" class="st3" width="5.4" height="466"/>
	<rect x="28.9" y="448.9" class="st3" width="466" height="5.4"/>
	<rect x="406.8" y="44.1" class="st3" width="5.4" height="466"/>
	<rect x="28.9" y="126.8" class="st3" width="466" height="5.4"/>
	<rect x="192.1" y="44.1" class="st3" width="5.4" height="466"/>
	<rect x="28.9" y="341.5" class="st3" width="466" height="5.4"/>
	<rect x="353.1" y="44.1" class="st3" width="5.4" height="466"/>
	<rect x="28.9" y="180.5" class="st3" width="466" height="5.4"/>
	<rect x="138.5" y="44.1" class="st3" width="5.4" height="466"/>
	<rect x="28.9" y="395.2" class="st3" width="466" height="5.4"/>
	<rect x="460.5" y="44.1" class="st3" width="5.4" height="466"/>
	<rect x="28.9" y="73.2" class="st3" width="466" height="5.4"/>
	<rect x="245.8" y="44.1" class="st3" width="5.4" height="466"/>
	<rect x="28.9" y="287.9" class="st3" width="466" height="5.4"/>
</g>
<path class="st4" d="M483.8,123.9c0-35.5-28.6-44.9-43.7-44.9c-15.6,0-26,7.8-32,14.4c-6.9,7.6-10.5,16.2-10.5,20.8
	c0,3.4,2.6,5.9,5.9,5.9c1.7,0,3.2-0.7,5-1.5c2.3-1.1,5.1-2.4,9-2.4c10.4,0,16.6,6.8,16.6,18.2c0,30.1-44.3,89.1-87.2,146.3l-0.8,1
	c0.8-3.3,1.6-6.6,2.4-9.9c7.2-30.2,14.6-61.5,23.9-93.1c5.5-6.8,12.5-16.8,12.5-26.8c0-13.1-10.1-21.5-25.8-21.5
	c-26.5,0-40.6,13-46.9,43.3c-24,23.5-48.2,51.5-70.5,81.8c0.4-1.8,0.8-3.7,1.1-5.6c4.4-21.7,9.4-46.2,20.1-81
	c16.9-2.3,24.7-13.9,24.7-24.3c0-13.8-13.2-24.6-30.1-24.6c-13.7,0-28.6,6.4-32.9,8.4c-16.2-2.8-39.5-4.9-54.7-4.9
	c-79,0-134,53.4-134,101.3c0,37.4,25.1,54.2,49.9,54.2c15,0,27.2-6.5,35.4-18.9c6.9-10.5,9.4-22.9,9.4-31c0-11.3-4.5-13-7.1-13
	c-4.1,0-6,3.1-7.3,5.2c-1.7,2.8-3.4,5.4-10.2,5.4c-12.2,0-13.5-11.6-13.5-16.6c0-26,33.8-56.3,77.3-56.3c13.7,0,26.5,1.6,39,4.9
	c-12.3,32.1-18.5,63.6-25,96.9c-5.5,27.8-11.1,56.6-20.8,89.1c-14.1,23.9-22.1,47.6-22.1,65.1c0,5.5,1.1,23.5,15.3,23.5
	c27.7,0,40.1-26.8,53.6-61.7c3.8-9.8,7.4-21.7,10.9-36.4c26-37.8,54.4-73.3,82.6-103.4c-8.4,50.6-25.7,114.2-27.7,121.7
	c-13,17.4-21.8,38.8-21.8,53.6c0,15.9,9.6,17.6,13.7,17.6c32.7,0,44.6-20,57.5-62c0.3-1,0.7-2,1-3c19.9-31.6,47.4-63.9,74-95
	c3.8-4.5,7.7-9,11.5-13.5C423.7,236.8,483.8,163.8,483.8,123.9"/>
<path class="st5" d="M483.8,123.9c0-35.5-28.6-44.9-43.7-44.9c-15.6,0-26,7.8-32,14.4c-6.9,7.6-10.5,16.2-10.5,20.8
	c0,3.4,2.6,5.9,5.9,5.9c1.7,0,3.2-0.7,5-1.5c2.3-1.1,5.1-2.4,9-2.4c10.4,0,16.6,6.8,16.6,18.2c0,30.1-44.3,89.1-87.2,146.3l-0.8,1
	c0.8-3.3,1.6-6.6,2.4-9.9c7.2-30.2,14.6-61.5,23.9-93.1c5.5-6.8,12.5-16.8,12.5-26.8c0-13.1-10.1-21.5-25.8-21.5
	c-26.5,0-40.6,13-46.9,43.3c-24,23.5-48.2,51.5-70.5,81.8c0.4-1.8,0.8-3.7,1.1-5.6c4.4-21.7,9.4-46.2,20.1-81
	c16.9-2.3,24.7-13.9,24.7-24.3c0-13.8-13.2-24.6-30.1-24.6c-13.7,0-28.6,6.4-32.9,8.4c-16.2-2.8-39.5-4.9-54.7-4.9
	c-79,0-134,53.4-134,101.3c0,37.4,25.1,54.2,49.9,54.2c15,0,27.2-6.5,35.4-18.9c6.9-10.5,9.4-22.9,9.4-31c0-11.3-4.5-13-7.1-13
	c-4.1,0-6,3.1-7.3,5.2c-1.7,2.8-3.4,5.4-10.2,5.4c-12.2,0-13.5-11.6-13.5-16.6c0-26,33.8-56.3,77.3-56.3c13.7,0,26.5,1.6,39,4.9
	c-12.3,32.1-18.5,63.6-25,96.9c-5.5,27.8-11.1,56.6-20.8,89.1c-14.1,23.9-22.1,47.6-22.1,65.1c0,5.5,1.1,23.5,15.3,23.5
	c27.7,0,40.1-26.8,53.6-61.7c3.8-9.8,7.4-21.7,10.9-36.4c26-37.8,54.4-73.3,82.6-103.4c-8.4,50.6-25.7,114.2-27.7,121.7
	c-13,17.4-21.8,38.8-21.8,53.6c0,15.9,9.6,17.6,13.7,17.6c32.7,0,44.6-20,57.5-62c0.3-1,0.7-2,1-3c19.9-31.6,47.4-63.9,74-95
	c3.8-4.5,7.7-9,11.5-13.5C423.7,236.8,483.8,163.8,483.8,123.9z"/>
</svg>
